<svg id="user-friendly" width="59" height="95">
    <path id="wrench" fill="none" stroke="#FFFFFF" stroke-width="2" stroke-miterlimit="10" d="M18.8,4.2c0,0-0.2-0.3-1.3,0.3
                        c-1,0.6-5.2,2.4-7.5,6.6c-1.9,3.7,0.2,6.4,1,8.8c0.8,2.3,2.9,8.5,3.2,13.8c0.2,5.4,0,8,0,8L13,84.9c0,0-0.3,1.8,2.9,2.7
                        s5.1-0.7,5.1-0.7s1-1.1,1-2.6s-0.7-43.5-0.7-43.5s-0.4-5,1.5-9c2-4.2,6.9-9.1,6.9-9.1s2.1-2.1,1.9-5.5c-0.1-3.5-1-6.5-2.3-8.5
                        c-0.4-0.3-0.8,1.1-0.8,1.1l-3.2,6.9l-1.6,0.5l-7.3-3.1c0,0-0.7-2-0.7-2c0,0,3.2-7.1,3.2-7C19.2,4.4,19,4.3,18.8,4.2z" />
    <path id="screwdriver" fill="none" stroke="#FFFFFF" stroke-width="1.5" stroke-miterlimit="10" d="M41.3,5.2l0.3,3
                        c0,0,0,2.4-0.3,2.9s0.1,30,0.1,30l1.5-0.1l1,1.2c0,0,0.8,0.8,0,2.5c-0.8,1.7-0.6,5.3-0.5,5.8c0.1,0.5,0.3,5.5,2.5,13.9
                        c1.2,2.8,1,13.7,1,13.7s0.8,5.2-3,7.3s-6.6,0.5-8-0.3c-1.3-0.8-2.8-3-2.3-9c-0.2-6.1,0-9.3,0-9.3s3-9.7,2.9-11.9
                        c0.2-1.7,0.5-3.7,0.6-8.2c0-0.3-0.6-2.3-0.6-2.3s-1-1.6,1.3-3.3c0,0,1.6,0,1.6,0l-0.1-30.6c0,0-0.4-2-0.2-2.4
                        c0.2-0.4,0.4-3.1,0.4-3.1L41.3,5.2z" />
</svg>
