<svg id="responsive" width="144" height="101">
    <g id="desktop" display="inline">

        <polygon id="base" fill-rule="evenodd" clip-rule="evenodd" fill="#333333" stroke="#FFFFFF" stroke-width="2" stroke-miterlimit="10" points="
                                43.4,91 79.7,91 91.4,100 32.7,100       " />

        <rect id="stand" x="45" y="77" fill-rule="evenodd" clip-rule="evenodd" fill="#333333" stroke="#FFFFFF" stroke-width="2" stroke-miterlimit="10" width="35" height="13" />

        <path id="case_2_" fill-rule="evenodd" clip-rule="evenodd" fill="#333333" stroke="#FFFFFF" stroke-width="2" stroke-miterlimit="10" d="
                                M114,72c0,2.8-2.2,5-5,5H15c-2.8,0-5-2.2-5-5V19c0-2.8,2.2-5,5-5h94c2.8,0,5,2.2,5,5V72z" />

        <rect x="17" y="21" fill-rule="evenodd" clip-rule="evenodd" fill="#333333" stroke="#FFFFFF" stroke-width="2" stroke-miterlimit="10" width="90" height="50" />
    </g>
    <g id="tablet" display="inline">

        <path id="case_1_" fill-rule="evenodd" clip-rule="evenodd" fill="#333333" stroke="#FFFFFF" stroke-width="1.9963" stroke-miterlimit="10" d="
                                M117.8,59.4V98c0,1.1-0.9,2-2,2H58.7c-1.1,0-2-0.9-2-2V59.4c0-1.1,0.9-2,2-2h57.2C116.9,57.4,117.8,58.3,117.8,59.4z" />

        <path id="screen_1_" fill-rule="evenodd" clip-rule="evenodd" fill="#333333" stroke="#FFFFFF" stroke-width="2" stroke-miterlimit="10" d="
                                M113.4,61.5l0.1,31.6l-52.3,0.2l-0.1-31.6L113.4,61.5z" />
        <path id="button_1_" fill-rule="evenodd" clip-rule="evenodd" fill="#FFFFFF" d="M88.6,96.7c0,1.1-0.9,2-2,2s-2-0.9-2-2
                                c0-1.1,0.9-2,2-2S88.6,95.6,88.6,96.7z" />
    </g>
    <g id="iphone" display="inline">

        <path id="case" fill-rule="evenodd" clip-rule="evenodd" fill="#333333" stroke="#FFFFFF" stroke-width="2" stroke-miterlimit="10" d="
                                M107.8,65.9h16.5c1.1,0,2,0.9,2,2V98c0,1.1-0.9,2-2,2h-16.5c-1.1,0-2-0.9-2-2V67.8C105.9,66.7,106.7,65.9,107.8,65.9z" />
        <path id="button" fill-rule="evenodd" clip-rule="evenodd" fill="#FFFFFF" d="M116.1,94.7c0.9,0,1.6,0.7,1.6,1.6
                                c0,0.9-0.7,1.6-1.6,1.6s-1.6-0.7-1.6-1.6C114.4,95.5,115.2,94.7,116.1,94.7z" />

        <path id="screen" fill-rule="evenodd" clip-rule="evenodd" fill="#333333" stroke="#FFFFFF" stroke-width="2" stroke-miterlimit="10" d="
                                M109.5,69.8h13.4v22.8h-13.4V69.8z" />

</svg>
